<svg xmlns="http://www.w3.org/2000/svg" width="375" viewBox="0 0 375 375" height="375" version="1.0"><defs><clipPath id="a"><path d="M 116.265625 77.246094 L 225 77.246094 L 225 214.496094 L 116.265625 214.496094 Z M 116.265625 77.246094"/></clipPath><clipPath id="b"><path d="M 157 77.246094 L 246.015625 77.246094 L 246.015625 181 L 157 181 Z M 157 77.246094"/></clipPath></defs><path fill="#727376" d="M 174.800781 118.960938 L 201.695312 118.960938 C 202.875 118.960938 203.839844 119.929688 203.839844 121.117188 C 203.839844 122.300781 202.871094 123.273438 201.695312 123.273438 L 174.800781 123.273438 C 173.621094 123.273438 172.65625 122.304688 172.65625 121.117188 C 172.65625 119.929688 173.621094 118.960938 174.800781 118.960938 Z M 161.925781 156.617188 L 201.695312 156.617188 C 202.875 156.617188 203.839844 157.585938 203.839844 158.773438 C 203.839844 159.957031 202.871094 160.929688 201.695312 160.929688 L 161.925781 160.929688 C 160.75 160.929688 159.78125 159.957031 159.78125 158.773438 C 159.78125 157.585938 160.746094 156.617188 161.925781 156.617188 Z M 161.925781 144.542969 L 201.695312 144.542969 C 202.875 144.542969 203.839844 145.515625 203.839844 146.699219 C 203.839844 147.882812 202.871094 148.855469 201.695312 148.855469 L 161.925781 148.855469 C 160.75 148.855469 159.78125 147.886719 159.78125 146.699219 C 159.78125 145.511719 160.746094 144.542969 161.925781 144.542969 Z M 161.925781 132.472656 L 201.695312 132.472656 C 202.875 132.472656 203.839844 133.441406 203.839844 134.625 C 203.839844 135.8125 202.871094 136.78125 201.695312 136.78125 L 161.925781 136.78125 C 160.75 136.78125 159.78125 135.8125 159.78125 134.625 C 159.78125 133.441406 160.746094 132.472656 161.925781 132.472656 Z M 161.925781 132.472656" fill-rule="evenodd"/><g clip-path="url(#a)"><path fill="#F58634" d="M 116.355469 77.332031 L 147.800781 77.332031 C 147.84375 77.332031 147.878906 77.367188 147.878906 77.410156 L 147.878906 96.964844 C 147.878906 97.007812 147.914062 97.042969 147.953125 97.042969 L 224.910156 97.042969 C 224.953125 97.042969 224.988281 97.078125 224.988281 97.121094 L 224.988281 189.320312 C 224.988281 189.363281 224.953125 189.398438 224.910156 189.398438 L 199.457031 189.398438 C 199.414062 189.398438 199.378906 189.433594 199.378906 189.476562 L 199.378906 214.421875 C 199.378906 214.464844 199.34375 214.496094 199.304688 214.496094 L 187.53125 214.496094 C 187.488281 214.496094 187.453125 214.464844 187.453125 214.421875 L 187.453125 177.492188 C 187.453125 177.449219 187.488281 177.414062 187.53125 177.414062 L 212.988281 177.414062 C 213.03125 177.414062 213.066406 177.378906 213.066406 177.335938 L 213.066406 109.105469 C 213.066406 109.0625 213.03125 109.027344 212.988281 109.027344 L 147.957031 109.027344 C 147.914062 109.027344 147.878906 109.0625 147.878906 109.105469 C 147.878906 140.257812 147.847656 171.335938 147.847656 202.4375 C 147.847656 202.480469 147.882812 202.515625 147.921875 202.515625 L 165.933594 202.515625 L 165.933594 177.492188 L 177.78125 177.492188 L 177.78125 214.496094 L 135.867188 214.496094 C 135.84375 214.496094 135.824219 214.492188 135.808594 214.476562 C 135.796875 214.460938 135.785156 214.441406 135.785156 214.421875 C 135.859375 179.496094 135.953125 144.316406 135.953125 109.105469 C 135.953125 109.0625 135.917969 109.027344 135.875 109.027344 L 116.355469 109.027344 C 116.3125 109.027344 116.277344 108.992188 116.277344 108.949219 L 116.277344 77.410156 C 116.277344 77.367188 116.3125 77.332031 116.355469 77.332031 Z M 128.28125 89.3125 L 135.875 89.3125 C 135.917969 89.3125 135.953125 89.347656 135.953125 89.390625 L 135.953125 96.96875 C 135.953125 97.011719 135.917969 97.046875 135.875 97.046875 L 128.28125 97.046875 C 128.238281 97.046875 128.203125 97.011719 128.203125 96.96875 L 128.203125 89.390625 C 128.203125 89.347656 128.238281 89.3125 128.28125 89.3125 Z M 128.28125 89.3125" fill-rule="evenodd"/></g><g clip-path="url(#b)"><path fill="#F58634" d="M 157.027344 77.246094 C 157.027344 77.292969 157.066406 77.328125 157.105469 77.328125 L 245.925781 77.328125 C 245.96875 77.328125 246.003906 77.367188 246.003906 77.402344 L 246.003906 180.101562 C 246.003906 180.144531 245.96875 180.179688 245.925781 180.179688 L 234.003906 180.179688 C 234.003906 153.453125 234.082031 116.160156 234.082031 89.386719 C 234.082031 89.246094 162.574219 89.3125 157.105469 89.3125 C 157.0625 89.3125 157.027344 89.347656 157.027344 89.386719 Z M 157.027344 77.246094" fill-rule="evenodd"/></g></svg>